<svg width="18" height="19" viewBox="0 0 18 19" fill="none" xmlns="http://www.w3.org/2000/svg">
<path d="M14.4642 0H3.53578C1.58633 0 0 1.61661 0 3.60351V15.3965C0 17.3833 1.58622 19 3.53578 19H14.4642C16.4137 19 18 17.3834 18 15.3965V3.60351C18 1.61672 16.4138 0 14.4642 0ZM9.0001 15.0688C5.98683 15.0688 3.53598 12.571 3.53598 9.5C3.53598 6.429 5.98683 3.9312 9.0001 3.9312C12.0134 3.9312 14.4642 6.429 14.4642 9.5C14.4642 12.571 12.0134 15.0688 9.0001 15.0688ZM15.4093 3.7966C15.3964 3.85885 15.3803 3.92108 15.3546 3.98005C15.3289 4.03901 15.3 4.0947 15.2646 4.15039C15.2293 4.20281 15.1907 4.25194 15.1457 4.2978C14.9657 4.48125 14.7182 4.58608 14.4643 4.58608C14.4032 4.58608 14.3389 4.57952 14.2746 4.56642C14.2136 4.55332 14.1525 4.53694 14.0946 4.51073C14.0368 4.4878 13.9821 4.45505 13.9307 4.41901C13.8761 4.38625 13.8279 4.34367 13.7829 4.29781C13.7379 4.25195 13.6993 4.20281 13.6639 4.15039C13.6286 4.09471 13.5996 4.03902 13.5739 3.98005C13.5482 3.92109 13.5321 3.85885 13.5193 3.79661C13.5064 3.73109 13.5 3.66885 13.5 3.60333C13.5 3.53781 13.5064 3.47557 13.5193 3.41006C13.5321 3.34781 13.5482 3.28557 13.5739 3.22661C13.5996 3.16764 13.6286 3.11195 13.6639 3.05954C13.6993 3.00385 13.7379 2.95472 13.7829 2.90885C13.8279 2.86299 13.8761 2.82368 13.9307 2.78765C13.9821 2.75161 14.0368 2.72213 14.0946 2.69593C14.1525 2.67299 14.2136 2.65334 14.2746 2.64024C14.5896 2.57472 14.9239 2.67955 15.1457 2.90885C15.1907 2.95471 15.2293 3.00384 15.2646 3.05953C15.3 3.11195 15.3289 3.16763 15.3546 3.2266C15.3803 3.28557 15.3964 3.34781 15.4093 3.41005C15.4221 3.47556 15.4286 3.53781 15.4286 3.60332C15.4286 3.66884 15.4221 3.73109 15.4093 3.7966ZM13.1785 9.49979C13.1785 11.8477 11.3038 13.7583 9.0001 13.7583C6.6964 13.7583 4.82168 11.8476 4.82168 9.49979C4.82168 7.15195 6.6964 5.24132 9.0001 5.24132C11.3038 5.24132 13.1785 7.15195 13.1785 9.49979Z" fill="#283328"/>
</svg>
