<svg width="15" height="22" viewBox="0 0 15 22" fill="none" xmlns="http://www.w3.org/2000/svg">
<path fill-rule="evenodd" clip-rule="evenodd" d="M0.85179 11.1953L6.85213 21.6226C6.98588 21.8568 7.2328 22 7.49938 22C7.76689 22 8.01381 21.8568 8.14756 21.6226L14.1479 11.1953C14.7877 10.0953 15 8.82275 15 7.46291C15 3.34741 11.6429 0 7.49952 0C3.35683 0 0 3.34741 0 7.46291C0 8.82275 0.212012 10.0954 0.85179 11.1953ZM7.49935 3.79312C5.42944 3.79312 3.74959 5.49243 3.74959 7.58623C3.74959 9.68003 5.42947 11.3793 7.49935 11.3793C9.56927 11.3793 11.2501 9.68003 11.2501 7.58623C11.2501 5.49243 9.56927 3.79312 7.49935 3.79312Z" fill="#92E3A9"/>
</svg>
