<svg width="22" height="22" viewBox="0 0 22 22" fill="none" xmlns="http://www.w3.org/2000/svg">
<path d="M11 0C4.94314 0 0 4.94971 0 11.0146C0 13.3894 0.743314 15.6782 2.17189 17.5656L1.28571 21.6279L5.45771 20.5125C7.14297 21.4848 9.05829 22 11 22C17.0569 22 22 17.0503 22 10.9854C22 4.92047 17.0569 0 11 0ZM16.2857 15.363L15.7712 15.8782C15.2567 16.3934 14.5145 16.6504 13.8002 16.5364C6.77109 15.449 5.57137 10.4715 5.4008 8.2105C5.34388 7.52433 5.60058 6.86609 6.08606 6.40788L6.7144 5.7787C7.11394 5.37863 7.74343 5.37863 8.14297 5.7787L9.4856 7.12311C9.88514 7.52319 9.88514 8.15351 9.4856 8.55358L8.7144 9.26882C8.54253 9.44092 8.4577 9.72703 8.54253 9.95499C8.79922 10.7563 9.62847 12.5298 12.028 13.4173C12.2847 13.5033 12.5704 13.4464 12.7422 13.2452L13.4856 12.5009C13.8851 12.1008 14.5146 12.1008 14.9141 12.5009L16.3137 13.9023C16.6853 14.3337 16.6853 14.9629 16.2857 15.363Z" fill="#283328"/>
</svg>
